<svg width="320" fill="#fff" height="37" xmlns="http://www.w3.org/2000/svg">
          <g>
            <title>Layer 1</title>
            <text fill="#ffffff" stroke-width="0" x="-0.00475" y="-220.62286" id="svg_1" font-size="35" font-family="'Tahoma'" text-anchor="start" xml:space="preserve" font-weight="bold" stroke="#000" transform="matrix(0.627337 0 0 0.627337 36.0416 163.29)">Volumetric design school</text>
            <g id="svg_2" stroke="null">
              <path id="svg_3" d="m16.68713,3.78464a0.88281,0.89601 0 0 1 0.87575,0l6.6211,3.84029a0.88281,0.89601 0 0 1 0.44494,0.77773l0,7.1591l6.17616,3.58403a0.88281,0.89601 0 0 1 0.44494,0.77415l0,7.68058a0.88281,0.89601 0 0 1 -0.44494,0.77773l-6.6211,3.84029a0.88281,0.89601 0 0 1 -0.87575,0l-6.18322,-3.58403l-6.18322,3.58582a0.88281,0.89601 0 0 1 -0.87575,0l-6.6211,-3.84029a0.88281,0.89601 0 0 1 -0.44494,-0.77773l0,-7.68058a0.88281,0.89601 0 0 1 0.44494,-0.77773l6.17616,-3.58224l0,-7.1591a0.88281,0.89601 0 0 1 0.44494,-0.77773l6.6211,-3.84029l-0.00001,0zm-6.18322,13.32901l-4.84135,2.80809l4.84135,2.80809l4.84135,-2.80809l-4.84135,-2.80809zm5.73828,4.35281l-4.85547,2.81526l0,5.61618l4.85547,-2.81526l0,-5.61618zm1.76563,5.61618l4.85547,2.81526l0,-5.61618l-4.85547,-2.81526l0,5.61618zm0.89694,-7.16089l4.84135,2.80809l4.84135,-2.80809l-4.84135,-2.80809l-4.84135,2.80809zm3.95853,-4.35997l0,-5.61618l-4.85547,2.81705l0,5.61618l4.85547,-2.81705zm-6.6211,2.81705l0,-5.61618l-4.85547,-2.81705l0,5.61618l4.85547,2.81705zm-3.95853,-9.97615l4.84135,2.80809l4.84135,-2.80809l-4.84135,-2.80809l-4.84135,2.80809zm17.20073,13.06379l-4.85547,2.81526l0,5.61618l4.85547,-2.81526l0,-5.61618zm-19.86329,8.43143l0,-5.61618l-4.85547,-2.81526l0,5.61618l4.85547,2.81526z" stroke="null"/>
            </g>
          </g>
        </svg>