<svg width="74" height="73" viewBox="0 0 74 73" fill="none" xmlns="http://www.w3.org/2000/svg">
<g clip-path="url(#clip0_370726_530)" filter="url(#filter0_d_370726_530)">
<path d="M19.6364 60.3152H15.1891C14.1966 60.3152 13.3973 59.516 13.3973 58.5234C13.3973 57.5308 14.1966 56.7316 15.1891 56.7316H19.6364C20.629 56.7316 21.4282 57.5308 21.4282 58.5234C21.4282 59.516 20.629 60.3152 19.6364 60.3152Z" fill="#F0BF5F"/>
<path d="M68.2083 60.3152H63.4903C62.4977 60.3152 61.6985 59.516 61.6985 58.5234C61.6985 57.5308 62.4977 56.7316 63.4903 56.7316H68.2083C69.2008 56.7316 70 57.5308 70 58.5234C70 59.516 69.2008 60.3152 68.2083 60.3152Z" fill="#F0BF5F"/>
<path d="M66.2361 60.0961H63.4904C62.4978 60.0961 61.6986 59.2969 61.6986 58.3043C61.6986 57.3117 62.4978 56.5125 63.4904 56.5125H64.4443V55.7262C64.4443 52.0652 62.8845 49.1133 59.9326 47.1797C57.7798 45.7746 55.047 45.027 52.0306 45.027H25.9013C23.5165 45.027 21.4283 46.7156 20.9384 49.0617L19.3658 56.5125H19.9072C20.8997 56.5125 21.699 57.3117 21.699 58.3043C21.699 59.2969 20.8997 60.0961 19.9072 60.0961H17.1615C16.62 60.0961 16.1044 59.8512 15.7693 59.4387C15.4341 59.0133 15.2923 58.4719 15.4083 57.9434L17.4322 48.327C18.27 44.3437 21.8408 41.4434 25.9142 41.4434H52.0435C55.756 41.4434 59.172 42.3844 61.9048 44.1762C65.8622 46.7672 68.0408 50.8664 68.0408 55.7262V58.3043C68.0279 59.2969 67.2286 60.0961 66.2361 60.0961Z" fill="#F0BF5F"/>
<path d="M45.959 60.0961H32.282C31.2895 60.0961 30.4902 59.2969 30.4902 58.3043C30.4902 57.3117 31.2895 56.5125 32.282 56.5125H45.9719C46.9645 56.5125 47.7637 57.3117 47.7637 58.3043C47.7637 59.2969 46.9516 60.0961 45.959 60.0961Z" fill="#F0BF5F"/>
<path d="M52.0305 43.2352C54.7375 43.2352 57.277 43.7895 59.4297 44.8465L56.916 33.9539C56.2199 31.2985 53.8094 29.4422 51.0637 29.4422H35.0922C32.643 29.4422 30.4387 30.9117 29.5106 33.1805L25.7594 43.2352H52.0305Z" fill="#CEE8FA"/>
<path d="M59.4296 46.6383C59.1589 46.6383 58.8882 46.5738 58.6433 46.4578C56.7355 45.5297 54.4409 45.027 52.0304 45.027H25.7593C25.1663 45.027 24.6249 44.7434 24.2897 44.2535C23.9546 43.7766 23.8772 43.1578 24.0835 42.6035L27.8347 32.5488C27.8476 32.5231 27.8476 32.5102 27.8605 32.4844C29.0722 29.5453 31.921 27.6375 35.105 27.6375H51.0765C54.6343 27.6375 57.7538 30.0352 58.6562 33.477C58.6562 33.4899 58.669 33.5156 58.669 33.5285L61.1827 44.4211C61.3374 45.0914 61.0925 45.8004 60.5511 46.2258C60.2288 46.5094 59.8292 46.6383 59.4296 46.6383ZM28.3503 41.4434H52.0433C53.7448 41.4434 55.3948 41.6496 56.9546 42.0492L55.1886 34.3922C54.6858 32.5359 52.9972 31.2469 51.0765 31.2469H35.0921C33.3776 31.2469 31.8437 32.2652 31.1733 33.8508L28.3503 41.4434Z" fill="#F0BF5F"/>
<path d="M45.9589 52.568C44.9663 52.568 44.1671 51.7688 44.1671 50.7762V30.1254C44.1671 29.1328 44.9663 28.3336 45.9589 28.3336C46.9515 28.3336 47.7507 29.1328 47.7507 30.1254V50.7633C47.7507 51.7688 46.9515 52.568 45.9589 52.568Z" fill="#F0BF5F"/>
<path d="M58.463 64.8656C54.5442 64.8656 51.3602 61.6816 51.3602 57.7629C51.3602 53.8441 54.5442 50.6602 58.463 50.6602C62.3817 50.6602 65.5657 53.8441 65.5657 57.7629C65.5657 61.6816 62.3817 64.8656 58.463 64.8656ZM58.463 54.2437C56.5294 54.2437 54.9438 55.8164 54.9438 57.7629C54.9438 59.7094 56.5165 61.282 58.463 61.282C60.3966 61.282 61.9821 59.7094 61.9821 57.7629C61.9821 55.8164 60.3966 54.2437 58.463 54.2437Z" fill="#2D527C"/>
<path d="M24.8441 64.8656C20.9253 64.8656 17.7413 61.6816 17.7413 57.7629C17.7413 53.8441 20.9253 50.6602 24.8441 50.6602C28.7628 50.6602 31.9468 53.8441 31.9468 57.7629C31.9597 61.6816 28.7628 64.8656 24.8441 64.8656ZM24.8441 54.2438C22.8976 54.2438 21.3249 55.8164 21.3249 57.7629C21.3249 59.7094 22.8976 61.282 24.8441 61.282C26.7905 61.282 28.3632 59.7094 28.3632 57.7629C28.3632 55.8164 26.7905 54.2438 24.8441 54.2438Z" fill="#2D527C"/>
<path d="M28.3891 25.7168H5.7918C4.79922 25.7168 4 24.9176 4 23.925V2.92617C4 1.93359 4.79922 1.13437 5.7918 1.13437H28.3891C29.3816 1.13437 30.1809 1.93359 30.1809 2.92617V23.925C30.1809 24.9176 29.3816 25.7168 28.3891 25.7168ZM7.58359 22.1332H26.5973V4.71796H7.58359V22.1332Z" fill="#2D527C"/>
<path d="M17.3289 7.25742H13.9902C13.307 7.25742 12.7914 7.6957 12.7914 8.28867V18.5496C12.7914 19.1684 13.423 19.5937 14.3125 19.5937C15.2148 19.5937 15.8336 19.1684 15.8336 18.5496V15.3398H17.1613C19.8554 15.3398 21.4023 13.8832 21.4023 11.3309V11.2535C21.4023 8.67539 19.9586 7.25742 17.3289 7.25742ZM17.1613 12.8519H15.8336V9.99023H17.1613C17.9605 9.99023 18.3472 10.4285 18.3472 11.3309V11.5113C18.3472 12.4137 17.9605 12.8519 17.1613 12.8519Z" fill="#2D527C"/>
<path d="M17.0839 40.7988C16.0913 40.7988 15.2921 39.9996 15.2921 39.007V24.157C15.2921 23.1645 16.0913 22.3652 17.0839 22.3652C18.0765 22.3652 18.8757 23.1645 18.8757 24.157V39.007C18.8886 39.9996 18.0765 40.7988 17.0839 40.7988Z" fill="#2D527C"/>
</g>
<defs>
<filter id="filter0_d_370726_530" x="0" y="0" width="74" height="74" filterUnits="userSpaceOnUse" color-interpolation-filters="sRGB">
<feFlood flood-opacity="0" result="BackgroundImageFix"/>
<feColorMatrix in="SourceAlpha" type="matrix" values="0 0 0 0 0 0 0 0 0 0 0 0 0 0 0 0 0 0 127 0" result="hardAlpha"/>
<feOffset dy="4"/>
<feGaussianBlur stdDeviation="2"/>
<feComposite in2="hardAlpha" operator="out"/>
<feColorMatrix type="matrix" values="0 0 0 0 0 0 0 0 0 0 0 0 0 0 0 0 0 0 0.25 0"/>
<feBlend mode="normal" in2="BackgroundImageFix" result="effect1_dropShadow_370726_530"/>
<feBlend mode="normal" in="SourceGraphic" in2="effect1_dropShadow_370726_530" result="shape"/>
</filter>
<clipPath id="clip0_370726_530">
<rect width="66" height="66" fill="white" transform="translate(4)"/>
</clipPath>
</defs>
</svg>
